<svg width="156" height="40" viewBox="0 0 156 40" fill="none" xmlns="http://www.w3.org/2000/svg">
    <g clip-path="url(#clip0_2077_3724)">
        <path d="M5.18607 7.36475H0V36.1644H5.18607V7.36475Z" fill="white"></path>
        <path d="M9.3623 14.5766H14.1183V16.5635C15.1313 14.6148 17.7817 13.8761 19.8109 13.8761C22.0312 13.8761 24.2165 14.8123 25.5799 16.5635C25.7742 16.7577 25.9303 16.9933 26.0864 17.2258C26.2425 16.9519 26.4368 16.7195 26.6311 16.5635C28.1506 14.7327 30.6067 13.8761 32.9481 13.8761C35.4838 13.8761 37.8219 14.6148 39.5358 16.5635C41.5235 18.7063 41.7561 21.2408 41.7561 24.046V36.1645H36.57V24.6669C36.57 23.4187 36.5318 21.6261 35.7896 20.5372C35.127 19.5246 33.8018 18.9388 32.5531 18.9388C31.11 18.9388 29.7466 19.5629 28.9661 20.8078C28.071 22.212 28.1475 24.3166 28.1475 25.8736V36.1613H22.9678V24.6669C22.9678 23.2627 22.9678 21.9381 22.1491 20.6932C21.4068 19.5629 20.0817 18.9388 18.7565 18.9388C14.6248 18.9388 14.5452 22.8361 14.5452 25.8768V36.1645H9.3623V14.5766Z" fill="white"></path>
        <path d="M45.6138 7.36475H50.7998V14.5766H55.2851V19.1744H50.7998V36.1644H45.6138V7.36475Z" fill="white"></path>
        <path d="M99.5546 27.1504C98.771 27.1504 98.0224 26.8861 97.5478 26.4403C97.3566 26.2556 92.9319 21.9986 91.2372 20.4066C90.6479 19.8525 90.3421 19.1298 90.3739 18.372C90.4058 17.6078 90.7785 16.9009 91.4283 16.3787L100.109 10.1094C100.998 9.50757 101.912 9.18917 102.753 9.18917C104.17 9.18917 105.349 10.1062 105.687 11.4689L107.904 20.6899C108.14 21.6674 107.585 22.9633 106.716 23.4632L100.902 26.8224C100.536 27.0357 100.058 27.1504 99.5546 27.1504ZM109.889 20.2123L107.671 10.985C107.104 8.68927 105.126 7.14819 102.75 7.14819C101.491 7.14819 100.176 7.59078 98.943 8.43136L90.2051 14.7421L90.1764 14.7644C89.0424 15.6623 88.3861 16.9105 88.3288 18.2796C88.2715 19.6233 88.8194 20.9415 89.8387 21.8967C91.5526 23.5078 96.092 27.8763 96.1366 27.9209L96.1429 27.9273C96.9998 28.7328 98.2454 29.1945 99.5546 29.1945C100.424 29.1945 101.243 28.9876 101.922 28.5927L107.735 25.2336C109.392 24.2784 110.338 22.0718 109.889 20.2123Z" fill="#B5002F"></path>
        <path d="M93.878 17.8752C93.5945 17.8752 93.3269 17.8338 93.0785 17.7542L87.8319 16.0508C86.5386 15.6305 85.4013 14.0703 85.4013 12.7075V4.69965C85.4013 3.84633 85.6243 3.14902 86.0416 2.67778C86.4143 2.26386 86.9367 2.04416 87.5611 2.04416C87.9816 2.04416 88.4371 2.14286 88.9118 2.33391L98.0129 6.01148C98.9558 6.39356 99.6503 7.09405 99.9656 7.97922C100.281 8.86757 100.182 9.84825 99.6917 10.7398L96.573 16.3755C96.0856 17.2575 94.9771 17.8752 93.878 17.8752ZM101.893 7.29465C101.38 5.84909 100.275 4.71876 98.7774 4.11379L89.6795 0.436214C88.9596 0.146466 88.246 0 87.5643 0C85.0891 0 83.3594 1.93272 83.3594 4.69965V12.7075C83.3594 14.9714 85.0477 17.2957 87.2011 17.993L92.4509 19.6965C92.9033 19.843 93.3843 19.9194 93.8812 19.9194C95.7193 19.9194 97.5223 18.8909 98.3665 17.3626L101.482 11.7268C102.262 10.3163 102.409 8.74339 101.893 7.29465Z" fill="#E00027"></path>
        <path d="M75.5864 16.3215L89.8417 11.0137C90.1443 10.9054 90.4406 10.8513 90.7241 10.8513C91.6989 10.8513 92.4093 11.4817 92.6227 12.5325L93.5083 16.8691L94.585 22.1546C94.6519 22.489 94.6232 22.7787 94.499 22.9284C94.3843 23.0685 94.1709 23.0971 94.0116 23.0971C93.9065 23.0971 93.795 23.0844 93.6739 23.0589L76.3923 19.4705L76.3828 19.4673L76.3732 19.4641C75.064 19.2126 74.2134 18.614 74.1561 17.9071C74.1083 17.299 74.6817 16.659 75.5864 16.3215ZM96.5855 21.7471L94.6232 12.1249C94.2186 10.1412 92.6514 8.80713 90.7209 8.80713C90.1985 8.80713 89.6697 8.90265 89.1409 9.09051L74.8696 14.4047C73.0698 15.0765 71.9899 16.5189 72.1205 18.0791C72.1874 18.891 72.5792 19.6361 73.2482 20.2315C73.9267 20.8333 74.8442 21.2504 75.9814 21.4733L93.2566 25.0617C93.5114 25.1158 93.7663 25.1413 94.0084 25.1413C94.8589 25.1413 95.5948 24.8165 96.079 24.2211C96.6046 23.5843 96.783 22.7055 96.5855 21.7471Z" fill="#EC6D1F"></path>
        <path d="M64.759 20.9669C63.7683 21.2375 63.1121 21.2948 62.8127 20.9351C62.6024 20.6803 62.6343 20.1454 63.1472 19.0756L68.964 7.00167C69.4036 6.09421 70.0216 5.57203 70.6587 5.57203C71.2034 5.57203 71.7864 5.93501 72.3056 6.59411C74.0194 8.77518 78.734 14.7357 78.7786 14.793C79.1927 15.3216 79.3456 15.8469 79.2087 16.28C79.0717 16.7098 78.6448 17.0505 78.0045 17.2416L64.759 20.9669ZM80.3841 13.5226C80.3363 13.4621 75.6249 7.50475 73.9143 5.32686C73 4.16468 71.8469 3.52469 70.6619 3.52469C69.2061 3.52469 67.9159 4.46717 67.1227 6.11332L61.3059 18.1872C60.3598 20.1486 60.6624 21.3553 61.0797 22.0208C61.5608 22.7882 62.4432 23.2085 63.5581 23.2085C64.0965 23.2085 64.6922 23.1129 65.3293 22.9251L78.562 19.1997L78.5716 19.1966C79.8649 18.8145 80.8078 17.9739 81.1519 16.8945C81.4991 15.8151 81.2187 14.5861 80.3841 13.5226Z" fill="#F08400"></path>
    </g>
    <path d="M114.721 36V8H116.641V36H114.721Z" fill="white"></path>
    <path d="M139.776 26.44C139.776 31.92 136.456 36.48 130.976 36.48C125.496 36.48 122.176 31.92 122.176 26.44C122.176 20.96 125.496 16.4 130.976 16.4C136.456 16.4 139.776 20.96 139.776 26.44ZM137.896 26.44C137.896 21.6 135.056 18.16 130.976 18.16C126.896 18.16 124.056 21.6 124.056 26.44C124.056 31.28 126.896 34.72 130.976 34.72C135.056 34.72 137.896 31.28 137.896 26.44Z" fill="white"></path>
    <path d="M145.307 36V9.84H136.787V8H155.787V9.84H147.227V36H145.307Z" fill="white"></path>
    <defs>
        <clipPath id="clip0_2077_3724">
            <rect width="110" height="36.1644" fill="white"></rect>
        </clipPath>
    </defs>
</svg>